<?xml version="1.0" encoding="utf-8"?>
<!-- Generator: Adobe Illustrator 21.1.0, SVG Export Plug-In . SVG Version: 6.00 Build 0)  -->
<svg version="1.1"
	 id="svgLineaMetRo" inkscape:version="0.47 r22583" sodipodi:docname="Metropolitana di Roma A.svg" sodipodi:version="0.32" xmlns:cc="http://creativecommons.org/ns#" xmlns:dc="http://purl.org/dc/elements/1.1/" xmlns:inkscape="http://www.inkscape.org/namespaces/inkscape" xmlns:rdf="http://www.w3.org/1999/02/22-rdf-syntax-ns#" xmlns:sodipodi="http://sodipodi.sourceforge.net/DTD/sodipodi-0.dtd" xmlns:svg="http://www.w3.org/2000/svg"
	 xmlns="http://www.w3.org/2000/svg" xmlns:xlink="http://www.w3.org/1999/xlink" x="0px" y="0px" viewBox="0 0 604 299.7152"
	 style="enable-background:new 0 0 604 299.7152;" xml:space="preserve">
<style type="text/css">
	.st0{fill:#FFFFFF;}
	.st1{fill:#ee2926;}
	.st2{fill:#f36c21;}
</style>
<title>Metro di Roma - Linea A</title>
<sodipodi:namedview  bordercolor="#666666" borderopacity="1.0" height="300px" id="base" inkscape:current-layer="svgLineaMetRo" inkscape:cx="225" inkscape:cy="150" inkscape:document-units="px" inkscape:pageopacity="0.0" inkscape:pageshadow="2" inkscape:window-height="749" inkscape:window-maximized="1" inkscape:window-width="1280" inkscape:window-x="0" inkscape:window-y="27" inkscape:zoom="1" pagecolor="#ffffff" showgrid="false" width="430px">
	</sodipodi:namedview>
<g>
	<polyline class="st0" points="302.0024,149.9068 302.0024,0 0,0 0,299.7152 302.0024,299.7152 	"/>
	<g>
		<path class="st1" d="M302.0024,299.7152H0V0h302.0024V299.7152z M222.8894,56.3148h-36.3238l-35.5643,122.4718l-35.467-122.4718
			H79.2104L25.7689,243.4013h35.6569l36.6111-123.2362l34.4203,123.1388h18.5441h18.1595l34.8049-123.1388l36.4163,123.2362h35.7542
			L222.8894,56.3148z"/>
	</g>
	<rect x="302.0024" class="st2" width="301.9976" height="299.7152"/>
	<path class="st0" d="M477.4386,200.8507h-46.1193l-8.3689,42.5506h-35.3696l45.6421-187.179h44.2157l44.6879,187.179h-36.5137
		L477.4386,200.8507z M436.6464,174.1275h35.656l-17.4965-90.9483L436.6464,174.1275z"/>
</g>
</svg>
